# xmcd
#
# Track frame offsets:
#	150
#	13050
#	26947
#	41790
#	56932
#	72730
#	90770
#	104332
#	117540
#	128542
#
# Disc length: 1903 seconds
#
# Revision: 1
# Processed by: cddbd v1.4PL0 Copyright (c) Steve Scherf et al.
# Submitted via: CDmax 1.9
#
DISCID=8e076d0a
DTITLE=DJ's Choice - Country Dance - Country Dance
DYEAR=1998
DGENRE=Country
TTITLE0=Dont Rock The Jukebox
TTITLE1=I Like It, I Love It
TTITLE2=Boot Scootin Boogie
TTITLE3=My Maria
TTITLE4=Devil Went Down To Georgia
TTITLE5=Whose Bed Have Your Boots Been Under
TTITLE6=Watermelon Crawl
TTITLE7=Little Miss Honkey Tonk
TTITLE8=Chattahoochee
TTITLE9=Cotton Eyed Joe
EXTD=
EXTT0=
EXTT1=
EXTT2=
EXTT3=
EXTT4=
EXTT5=
EXTT6=
EXTT7=
EXTT8=
EXTT9=
PLAYORDER=
